<svg width="1325" height="1279" xmlns="http://www.w3.org/2000/svg" xmlns:xlink="http://www.w3.org/1999/xlink" xml:space="preserve" overflow="hidden"><g transform="translate(-3075 -925)"><g><path d="M4153.75 1654.76 3993 1654.76C4023.31 1602.45 4005.46 1535.49 3953.13 1505.19 3900.8 1474.9 3833.81 1492.74 3803.5 1545.05 3783.84 1578.98 3783.84 1620.83 3803.5 1654.76L3642.75 1654.76 3642.75 1478.35C3642.75 1468.27 3634.58 1460.1 3624.5 1460.1 3618.76 1460.1 3613.35 1462.81 3609.9 1467.4 3582.36 1504.12 3530.26 1511.56 3493.52 1484.04 3456.79 1456.51 3449.34 1404.43 3476.88 1367.71 3504.42 1331 3556.53 1323.55 3593.26 1351.08 3599.57 1355.81 3605.17 1361.41 3609.9 1367.71 3615.95 1375.77 3627.39 1377.41 3635.45 1371.36 3640.05 1367.91 3642.75 1362.51 3642.75 1356.77L3642.75 1162.24C3642.75 1152.17 3634.58 1144 3624.5 1144L3095.25 1144C3085.17 1144 3077 1152.17 3077 1162.24L3077 2183.76C3077 2193.83 3085.17 2202 3095.25 2202L4153.11 2202C4163.19 2202 4171.36 2193.83 4171.36 2183.76L4172 1673C4172 1662.93 4163.83 1654.76 4153.75 1654.76ZM3113.5 1180.48 3606.25 1180.48 3606.25 1315.94C3550.08 1281.18 3476.34 1298.51 3441.56 1354.65 3406.78 1410.79 3424.12 1484.49 3480.29 1519.26 3518.87 1543.15 3567.66 1543.15 3606.25 1519.26L3606.25 1654.76 3417.93 1654.76C3407.85 1654.76 3399.68 1662.93 3399.68 1673 3399.68 1678.74 3402.38 1684.15 3406.98 1687.59 3428.11 1702.79 3440.61 1727.24 3440.56 1753.26 3440.56 1799.6 3402.97 1837.17 3356.61 1837.17 3310.24 1837.17 3272.66 1799.6 3272.66 1753.26 3272.61 1727.24 3285.12 1702.79 3306.26 1687.59 3314.32 1681.55 3315.95 1670.11 3309.91 1662.06 3306.46 1657.46 3301.05 1654.76 3295.31 1654.76L3113.5 1654.76ZM3606.25 2165.52 3113.5 2165.52 3113.5 1691.24 3254.03 1691.24C3242.34 1709.81 3236.15 1731.32 3236.19 1753.26 3236.19 1819.75 3290.12 1873.66 3356.64 1873.66 3423.17 1873.66 3477.09 1819.75 3477.09 1753.26 3477.14 1731.32 3470.97 1709.82 3459.28 1691.24L3606.25 1691.24 3606.25 1865.88C3606.24 1875.96 3614.41 1884.13 3624.49 1884.14 3630.35 1884.14 3635.85 1881.33 3639.28 1876.59 3649.19 1862.69 3663.3 1852.35 3679.54 1847.08 3722.69 1831.44 3770.36 1853.73 3786.01 1896.86 3801.65 1939.99 3779.35 1987.63 3736.2 2003.27 3734.45 2003.9 3732.68 2004.48 3730.9 2004.99L3729.38 2005.61C3727.83 2006.11 3726.28 2006.71 3724.71 2007.44L3723.4 2007.95C3722.33 2008.04 3721.27 2008.22 3720.24 2008.5 3694.42 2015.2 3666.97 2008.16 3647.57 1989.87 3646.49 1988.76 3645.03 1987.3 3643.43 1985.79 3642.09 1984.53 3640.58 1983.16 3639.61 1982.14 3636.17 1977.19 3630.53 1974.24 3624.5 1974.24 3614.42 1974.24 3606.25 1982.41 3606.25 1992.48L3606.25 2165.52ZM4134.88 2165.52 3642.75 2165.52 3642.75 2031.61C3668.37 2046.7 3698.87 2051.22 3727.78 2044.21 3731.56 2043.74 3735.25 2042.7 3738.73 2041.13L3743.27 2039.31C3805.99 2018.57 3840.01 1950.94 3819.27 1888.25 3798.52 1825.57 3730.86 1791.56 3668.14 1812.3 3659.3 1815.22 3650.83 1819.17 3642.9 1824.06L3642.9 1691.24 3843.5 1691.24C3853.58 1691.24 3861.75 1683.07 3861.75 1673 3861.75 1667.26 3859.05 1661.85 3854.45 1658.41 3822.2 1634.23 3815.66 1588.49 3839.85 1556.26 3864.04 1524.02 3909.8 1517.48 3942.05 1541.66 3974.3 1565.84 3980.84 1611.58 3956.65 1643.81 3952.5 1649.34 3947.58 1654.26 3942.05 1658.41 3933.99 1664.45 3932.35 1675.89 3938.4 1683.94 3941.85 1688.54 3947.26 1691.24 3953 1691.24L4135.5 1691.24Z" fill="#A02B93" fill-rule="evenodd" fill-opacity="0.501961"/><path d="M4395.17 1151.72C4393.59 1147.16 4390.26 1143.4 4385.91 1141.29L3955.77 932.197C3946.72 927.795 3935.8 931.57 3931.4 940.63 3931.4 940.633 3931.4 940.639 3931.39 940.642L3868.46 1070.43C3834.36 1020.77 3766.47 1008.16 3716.81 1042.25 3667.16 1076.35 3654.54 1144.24 3688.64 1193.89 3700.16 1210.67 3716.14 1223.88 3734.77 1232.05 3750.98 1239.25 3768.8 1242.05 3786.44 1240.17L3722.66 1368.73C3718.2 1377.76 3721.89 1388.7 3730.92 1393.17 3730.98 1393.2 3731.04 1393.23 3731.1 1393.26L3885.87 1467.72C3894.95 1472.08 3905.84 1468.26 3910.2 1459.18 3912.66 1454.06 3912.59 1448.08 3910.02 1443.02 3899.03 1421.4 3899.92 1395.64 3912.38 1374.83 3932.13 1333.42 3981.72 1315.87 4023.13 1335.62 4064.53 1355.38 4082.08 1404.97 4062.33 1446.37 4062.05 1446.95 4061.77 1447.53 4061.48 1448.1 4053.12 1471.01 4033.73 1488.13 4009.96 1493.57 4000.05 1495.35 3993.46 1504.84 3995.25 1514.75 3996.29 1520.55 4000.07 1525.49 4005.4 1528L4161.09 1602.96C4170.14 1607.38 4181.06 1603.62 4185.48 1594.57 4185.48 1594.57 4185.48 1594.56 4185.48 1594.56L4394.34 1165.6C4396.44 1161.26 4396.74 1156.28 4395.17 1151.72ZM4160.64 1562.3 4056.57 1512.07C4072.78 1499.33 4085.69 1482.89 4094.23 1464.13 4121.72 1404.08 4095.33 1333.13 4035.29 1305.64 3975.25 1278.15 3904.29 1304.53 3876.8 1364.58 3869.19 1381.2 3865.49 1399.35 3865.99 1417.63L3763.58 1368.34 3838.26 1217.78C3842.73 1208.76 3839.03 1197.82 3830 1193.35 3824.61 1190.68 3818.23 1190.85 3812.98 1193.8 3793.83 1205.51 3770.21 1207.31 3749.5 1198.62 3712.63 1182.38 3695.9 1139.32 3712.14 1102.44 3728.38 1065.56 3771.45 1048.83 3808.32 1065.08 3829.6 1075.22 3845.03 1094.6 3850.14 1117.61 3852.43 1127.42 3862.24 1133.52 3872.04 1131.23 3877.41 1129.98 3881.91 1126.38 3884.31 1121.43L3956.33 972.923 4353.62 1166.11Z" fill="#A02B93" fill-rule="evenodd" fill-opacity="0.501961"/></g></g></svg>